<svg width="35" height="36" viewBox="0 0 35 36" fill="none" xmlns="http://www.w3.org/2000/svg">
<g clip-path="url(#clip0_2034_3223)">
<rect y="0.591797" width="35" height="35" rx="17.5" fill="url(#paint0_radial_2034_3223)"/>
<g clip-path="url(#clip1_2034_3223)">
<path d="M22.7025 29.4429H12.2971C8.90682 29.4429 6.14844 26.6848 6.14844 23.2943V12.8889C6.14844 9.49838 8.90682 6.74023 12.2971 6.74023H22.7025C26.093 6.74023 28.8511 9.49838 28.8511 12.8889V23.2943C28.8511 26.6848 26.093 29.4429 22.7025 29.4429ZM12.2971 8.63213C9.94996 8.63213 8.04033 10.5415 8.04033 12.8889V23.2943C8.04033 25.6414 9.94996 27.551 12.2971 27.551H22.7025C25.0499 27.551 26.9592 25.6414 26.9592 23.2943V12.8889C26.9592 10.5415 25.0499 8.63213 22.7025 8.63213H12.2971Z" fill="white"/>
<path d="M17.4999 23.7674C14.3702 23.7674 11.8242 21.2211 11.8242 18.0917C11.8242 14.962 14.3702 12.416 17.4999 12.416C20.6296 12.416 23.1756 14.962 23.1756 18.0917C23.1756 21.2211 20.6296 23.7674 17.4999 23.7674ZM17.4999 14.3079C15.4136 14.3079 13.7161 16.0054 13.7161 18.0917C13.7161 20.178 15.4136 21.8755 17.4999 21.8755C19.5862 21.8755 21.2837 20.178 21.2837 18.0917C21.2837 16.0054 19.5862 14.3079 17.4999 14.3079Z" fill="white"/>
<path d="M23.5302 13.3611C24.2485 13.3611 24.8308 12.7788 24.8308 12.0604C24.8308 11.3421 24.2485 10.7598 23.5302 10.7598C22.8118 10.7598 22.2295 11.3421 22.2295 12.0604C22.2295 12.7788 22.8118 13.3611 23.5302 13.3611Z" fill="white"/>
</g>
</g>
<defs>
<radialGradient id="paint0_radial_2034_3223" cx="0" cy="0" r="1" gradientUnits="userSpaceOnUse" gradientTransform="translate(10.5 38.0418) scale(44.7521)">
<stop stop-color="#FDF497"/>
<stop offset="0.05" stop-color="#FDF497"/>
<stop offset="0.45" stop-color="#FD5949"/>
<stop offset="0.6" stop-color="#D6249F"/>
<stop offset="0.9" stop-color="#285AEB"/>
</radialGradient>
<clipPath id="clip0_2034_3223">
<rect y="0.591797" width="35" height="35" rx="17.5" fill="white"/>
</clipPath>
<clipPath id="clip1_2034_3223">
<rect y="0.591797" width="35" height="35" rx="17.5" fill="white"/>
</clipPath>
</defs>
</svg>
