<svg width="35" height="36" viewBox="0 0 35 36" fill="none" xmlns="http://www.w3.org/2000/svg">
<g clip-path="url(#clip0_2034_3207)">
<rect y="0.591797" width="35" height="35" rx="17.5" fill="#0077B5"/>
<g clip-path="url(#clip1_2034_3207)">
<path d="M6.811 14.3848H11.3938V29.1285H6.811V14.3848ZM9.1024 7.05664C9.8073 7.05664 10.4833 7.33666 10.9818 7.8351C11.4802 8.33353 11.7602 9.00956 11.7602 9.71445C11.7602 10.4193 11.4802 11.0954 10.9818 11.5938C10.4833 12.0922 9.8073 12.3723 9.1024 12.3723C7.6324 12.3723 6.44678 11.1801 6.44678 9.71445C6.44678 8.24883 7.6324 7.05664 9.1024 7.05664ZM14.2649 14.3848H18.6618V16.3973H18.7252C19.3377 15.2401 20.8329 14.0173 23.0619 14.0173C27.6972 14.0173 28.5526 17.071 28.5526 21.0391V29.1274H23.9774V21.9524C23.9774 20.2418 23.9446 18.0434 21.5952 18.0434C19.2108 18.0434 18.8455 19.9027 18.8455 21.8277V29.1209H14.266V14.3848H14.2649Z" fill="white"/>
</g>
</g>
<defs>
<clipPath id="clip0_2034_3207">
<rect y="0.591797" width="35" height="35" rx="17.5" fill="white"/>
</clipPath>
<clipPath id="clip1_2034_3207">
<rect y="0.591797" width="35" height="35" rx="17.5" fill="white"/>
</clipPath>
</defs>
</svg>
