<svg width="35" height="36" viewBox="0 0 35 36" fill="none" xmlns="http://www.w3.org/2000/svg">
<g clip-path="url(#clip0_2034_3211)">
<rect y="0.591797" width="35" height="35" rx="17.5" fill="#FF8226"/>
<path opacity="0.8" d="M27.121 10.0215C23.0579 10.0215 19.7578 13.2563 19.7578 17.2478V19.4956C19.7578 18.4798 20.5931 17.6585 21.6237 17.6585C22.6543 17.6585 23.4896 18.4798 23.4896 19.4956V20.432C23.4896 21.4478 24.3249 22.2692 25.3555 22.2692C26.386 22.2692 27.2214 21.4478 27.2214 20.432V10.0285C27.1934 10.0215 27.1576 10.0215 27.121 10.0215Z" fill="white"/>
<path d="M8.55566 10.0223V20.0867C10.5514 20.0867 12.1863 18.5522 12.2944 16.6139V14.8919C12.2944 14.8414 12.2944 14.7986 12.3014 14.755C12.3738 13.8116 13.1803 13.0618 14.1603 13.0618C15.1909 13.0618 16.0262 13.8832 16.0262 14.8989V22.0747C16.0262 23.0905 16.8616 23.9048 17.8921 23.9048C18.9227 23.9048 19.758 23.0835 19.758 22.0747V17.2478C19.758 13.2563 23.0503 10.0215 27.1212 10.0215L8.55566 10.0223Z" fill="white"/>
<path opacity="0.8" d="M8.55566 20.0931V26.656C8.55566 27.6718 9.391 28.4931 10.4216 28.4931C11.4521 28.4931 12.2874 27.6718 12.2874 26.656V16.6211C12.1793 18.5593 10.5514 20.0931 8.55566 20.0931Z" fill="white"/>
</g>
<defs>
<clipPath id="clip0_2034_3211">
<rect y="0.591797" width="35" height="35" rx="17.5" fill="white"/>
</clipPath>
</defs>
</svg>
