<svg width="35" height="36" viewBox="0 0 35 36" fill="none" xmlns="http://www.w3.org/2000/svg">
<g clip-path="url(#clip0_2034_3243)">
<rect y="0.591797" width="35" height="35" rx="17.5" fill="#EE8E2D"/>
<g clip-path="url(#clip1_2034_3243)">
<path d="M12.8945 20.8544C14.4206 20.8544 15.6577 19.6173 15.6577 18.0913C15.6577 16.5652 14.4206 15.3281 12.8945 15.3281C11.3685 15.3281 10.1313 16.5652 10.1313 18.0913C10.1313 19.6173 11.3685 20.8544 12.8945 20.8544Z" fill="white"/>
<path d="M22.1054 16.249C23.6315 16.249 24.8686 15.0119 24.8686 13.4858C24.8686 11.9598 23.6315 10.7227 22.1054 10.7227C20.5794 10.7227 19.3423 11.9598 19.3423 13.4858C19.3423 15.0119 20.5794 16.249 22.1054 16.249Z" fill="white"/>
<path d="M22.1054 25.4599C23.6315 25.4599 24.8686 24.2228 24.8686 22.6968C24.8686 21.1707 23.6315 19.9336 22.1054 19.9336C20.5794 19.9336 19.3423 21.1707 19.3423 22.6968C19.3423 24.2228 20.5794 25.4599 22.1054 25.4599Z" fill="white"/>
<path d="M12.8945 18.0916L22.1051 13.4863L12.8945 18.0916ZM22.1051 22.6969L12.8945 18.0916L22.1051 22.6969Z" fill="black"/>
<path d="M22.1051 13.4863L12.8945 18.0916L22.1051 22.6969" stroke="white" stroke-width="1.84211"/>
</g>
</g>
<defs>
<clipPath id="clip0_2034_3243">
<rect y="0.591797" width="35" height="35" rx="17.5" fill="white"/>
</clipPath>
<clipPath id="clip1_2034_3243">
<rect y="0.591797" width="35" height="35" rx="17.5" fill="white"/>
</clipPath>
</defs>
</svg>
