<svg width="35" height="36" viewBox="0 0 35 36" fill="none" xmlns="http://www.w3.org/2000/svg">
<g clip-path="url(#clip0_2034_3239)">
<rect y="0.591797" width="35" height="35" rx="17.5" fill="#29435D"/>
<g clip-path="url(#clip1_2034_3239)">
<path d="M22.1424 23.8878C21.7827 24.0599 21.0924 24.2087 20.5771 24.2233C19.0235 24.2651 18.7231 23.1324 18.7104 22.3099V16.2656H22.6061V13.3276H18.725V8.38867H15.8813C15.8813 8.38867 15.7529 8.43145 15.7413 8.53451C15.576 10.0473 14.8711 12.7024 11.9272 13.7631V16.2695H13.8911V22.6103C13.8911 24.7803 15.4924 27.8642 19.7186 27.7923C21.1449 27.768 22.7286 27.1701 23.0786 26.6548L22.1453 23.8878H22.1424Z" fill="white"/>
</g>
</g>
<defs>
<clipPath id="clip0_2034_3239">
<rect y="0.591797" width="35" height="35" rx="17.5" fill="white"/>
</clipPath>
<clipPath id="clip1_2034_3239">
<rect y="0.591797" width="35" height="35" rx="17.5" fill="white"/>
</clipPath>
</defs>
</svg>
