<svg width="35" height="36" viewBox="0 0 35 36" fill="none" xmlns="http://www.w3.org/2000/svg">
<g clip-path="url(#clip0_2034_3203)">
<rect y="0.591797" width="35" height="35" rx="17.5" fill="#55ACEE"/>
<g clip-path="url(#clip1_2034_3203)">
<path d="M28.718 11.8605C27.9111 12.2169 27.0558 12.4513 26.18 12.556C27.1038 12.0043 27.7948 11.1349 28.1239 10.1105C27.2565 10.6273 26.3061 10.9898 25.3149 11.182C24.9012 10.742 24.4015 10.3914 23.8469 10.1522C23.2923 9.91291 22.6944 9.78999 22.0904 9.79102C21.4243 9.79099 20.7667 9.94157 20.1669 10.2315C19.5672 10.5214 19.0407 10.9432 18.627 11.4653C18.2132 11.9874 17.9228 12.5962 17.7776 13.2464C17.6323 13.8965 17.6359 14.5711 17.7881 15.2196C14.1176 15.0312 10.8599 13.2722 8.67913 10.5978C8.28804 11.2734 8.08218 12.0402 8.08234 12.8208C8.08234 14.3554 8.86311 15.7051 10.0477 16.5003C9.34642 16.476 8.66073 16.2866 8.04644 15.9474V16.0013C8.04644 18.1461 9.57208 19.932 11.5931 20.3359C11.2216 20.4391 10.8303 20.492 10.4291 20.492C10.1437 20.492 9.86734 20.4651 9.59631 20.4149C9.87923 21.2926 10.4291 22.0601 11.1691 22.6103C11.9092 23.1605 12.8025 23.466 13.7245 23.4841C12.159 24.7113 10.2267 25.3772 8.23759 25.375C7.88041 25.375 7.52862 25.3544 7.18311 25.314C9.20439 26.6122 11.5565 27.3016 13.9587 27.3C22.0859 27.3 26.5318 20.5629 26.5318 14.7242C26.5318 14.5331 26.5273 14.3419 26.5184 14.1526C27.3799 13.5288 28.1293 12.7526 28.7216 11.8641L28.718 11.8605Z" fill="white"/>
</g>
</g>
<defs>
<clipPath id="clip0_2034_3203">
<rect y="0.591797" width="35" height="35" rx="17.5" fill="white"/>
</clipPath>
<clipPath id="clip1_2034_3203">
<rect y="0.591797" width="35" height="35" rx="17.5" fill="white"/>
</clipPath>
</defs>
</svg>
