<svg width="35" height="36" viewBox="0 0 35 36" fill="none" xmlns="http://www.w3.org/2000/svg">
<g clip-path="url(#clip0_2034_3217)">
<rect y="0.591797" width="35" height="35" rx="17.5" fill="#55EB4C"/>
<g clip-path="url(#clip1_2034_3217)">
<path d="M15.3823 26.3141C17.3463 27.0289 19.5012 27.0172 21.4572 26.281C23.4132 25.5448 25.0411 24.1328 26.0464 22.3005C27.0516 20.4681 27.3678 18.3365 26.9378 16.2913C26.5077 14.246 25.3598 12.4223 23.7017 11.15C22.0436 9.87767 19.9849 9.24088 17.898 9.35482C15.8112 9.46875 13.834 10.3259 12.3243 11.7711C10.8146 13.2164 9.872 15.1542 9.66715 17.2342C9.4623 19.3141 10.0087 21.3986 11.2074 23.1106" stroke="white" stroke-width="1.75"/>
<path d="M11.375 21.5918L10.5 26.8418L15.75 25.9668" stroke="white" stroke-width="1.75"/>
<path d="M14.0001 13.7168C13.4168 18.3834 15.7501 21.5918 21.0001 23.3418C25.3751 22.4668 21.0001 18.0918 20.1251 20.7168C17.7918 18.9668 16.3334 17.5084 15.7501 16.3418C19.2501 14.5918 14.8751 11.9668 14.8751 12.8418" fill="white"/>
</g>
</g>
<defs>
<clipPath id="clip0_2034_3217">
<rect y="0.591797" width="35" height="35" rx="17.5" fill="white"/>
</clipPath>
<clipPath id="clip1_2034_3217">
<rect y="0.591797" width="35" height="35" rx="17.5" fill="white"/>
</clipPath>
</defs>
</svg>
